<svg xmlns="http://www.w3.org/2000/svg"
shape-rendering="geometricPrecision"
width="4000" height="4000" viewBox="0 0 633 633">
  <metadata>null</metadata>

<path d="
M 211.531 326.738
C 210.955 326.662 210.424 326.729 209.843 326.687
C 210.938 321.568 210.067 315.684 209.941 310.484
C 209.717 301.253 209.158 291.985 206.614 283.011
C 205.115 277.727 202.326 272.784 200.895 267.493
C 199.962 267.088 198.877 267.166 197.921 266.739
C 193.551 264.79 197.6 261.286 196.408 258.152
C 195.173 254.906 191.871 251.738 189.72 249.039
C 185.786 244.108 181.189 239.94 176.575 235.674
C 174.848 234.078 173.275 232.03 171.383 230.656
C 167.387 227.754 162.709 225.789 158.527 223.184
C 153.99 220.358 149.102 219.198 144.203 217.227
C 143.282 216.856 140.155 215.118 139.456 215.446
C 139.192 217.098 138.221 219.336 136.206 219.446
C 134.959 219.514 133.728 218.689 132.578 218.329
C 131.595 219.169 131.782 220.908 131.992 222.096
C 133.562 223.101 135.777 223.225 137.553 223.736
C 141.537 224.881 145.968 226.196 149.726 227.939
C 149.921 228.406 150.358 229.641 149.579 229.825
C 145.514 230.346 141.353 227.591 137.516 226.454
C 135.832 225.954 133.688 225.074 131.925 225.088
C 131.036 225.095 130.159 225.791 129.306 225.613
C 129.412 223.314 129.017 220.502 130.181 218.405
C 130.685 217.497 131.926 216.89 132.32 216.092
C 131.979 215.608 131.053 215.876 130.553 215.591
C 129.812 215.168 129.192 214.392 128.485 213.891
C 122.767 212.716 116.345 213.438 110.513 213.094
C 93.783 212.107 76.768 212.844 60.002 212.84
C 54.582 212.839 49.172 212.94 43.751 212.84
C 42.559 212.818 38.701 212.249 37.912 213.129
C 37.355 214.252 36.844 215.51 35.884 216.358
C 35.052 217.094 33.795 217.495 33.125 218.342
C 33.56 220.487 33.302 222.809 33.31 224.992
C 33.325 229.157 33.293 233.324 33.286 237.49
C 33.271 247.156 33.328 256.823 33.301 266.49
C 33.286 271.821 33.003 277.227 33.262 282.55
C 33.941 283.589 35.27 284.172 36.187 284.999
C 38.679 287.246 41.606 289.321 43.541 292.1
C 43.934 292.665 44.43 293.28 44.37 294.01
C 44.286 295.044 43.428 295.927 43.957 296.923
C 46.583 297.954 47.844 300.629 46.846 303.277
C 46.457 303.932 46.035 304.408 45.404 304.836
C 44.626 305.067 43.868 305.22 43.051 305.202
C 42.425 305.188 41.836 305.079 41.254 304.844
C 36.037 302.736 42.042 297.63 41.083 294.242
C 40.511 292.226 38.681 290.558 37.299 289.069
C 36.915 288.655 36.167 287.495 35.641 287.813
C 34.848 288.915 33.848 290.103 32.443 290.377
C 30.107 290.833 27.74 288.473 28.153 286.126
C 28.401 284.717 29.862 283.473 30.92 282.606
C 31.389 281.986 30.864 279.357 30.863 278.495
C 30.858 274.828 30.858 271.161 30.854 267.494
C 30.841 255.328 30.827 243.161 30.791 230.994
C 30.782 227.752 30.737 224.51 30.74 221.268
C 30.741 220.18 31.116 218.203 30.55 217.272
C 29.532 216.26 28.448 215.278 28.183 213.785
C 27.681 210.96 30.013 208.641 32.702 208.379
C 34.881 208.166 35.791 209.571 37.499 210.447
C 40.281 210.653 43.209 210.336 46.011 210.336
C 52.679 210.334 59.346 210.31 66.014 210.322
C 83.345 210.351 100.723 210.01 118.049 210.447
C 121.683 210.538 125.342 211.044 128.948 211.164
C 130.215 210.785 129.36 213.486 130.583 214.437
C 130.814 214.508 131.066 214.662 131.284 214.401
C 131.578 214.047 131.489 213.276 131.657 212.851
C 131.93 212.162 132.653 211.567 133.246 211.165
C 134.751 210.144 137.146 209.813 138.477 211.309
C 139.038 211.939 139.262 212.776 139.857 213.386
C 142.102 214.191 144.542 214.484 146.82 215.223
C 150.956 216.564 155.104 218.089 158.99 220.049
C 167.493 224.336 174.625 229.982 181.408 236.603
C 186.792 241.858 191.963 247.12 196.388 253.241
C 197.636 254.968 198.459 256.879 199.598 258.651
C 201.049 259.635 203.115 260.118 204.012 261.789
C 205.031 263.689 203.446 265.189 203.367 266.942
C 203.324 267.923 204.156 269.144 204.514 270.037
C 209.349 282.074 212.07 294.479 212.338 307.489
C 212.433 312.113 212.336 316.739 212.47 321.361
C 212.496 322.261 212.751 323.348 212.363 324.203
C 212.125 324.729 211.103 325.328 211.061 325.89
C 211.034 326.25 211.224 326.583 211.531 326.738 Z
M 30.282 286.546
C 30.472 287.201 30.642 287.691 31.242 288.049
C 32.002 288.048 32.953 287.876 33.188 287.025
C 33.199 286.161 32.968 285.644 32.469 284.951
C 31.409 284.812 30.841 285.794 30.282 286.546 Z
M 30.971 213.117
C 31.032 213.796 31.265 214.205 31.653 214.759
C 33.115 215.199 34.875 213.721 34.707 212.17
C 33.802 211.096 32.153 211.408 31.165 212.172
C 31.005 212.885 31.065 212.569 30.971 213.117 Z
M 41.452 301.065
C 41.331 301.827 41.435 302.275 41.9 302.889
C 43.352 303.025 45.321 302.612 44.565 300.762
C 43.883 299.942 43.02 299.868 42.038 300.128
C 41.582 300.791 41.772 300.475 41.452 301.065 Z
M 133.517 214.166
C 133.842 215.299 135.336 215.033 136.284 215.729
C 136.769 215.811 137.191 215.815 137.589 215.494
C 137.819 213.242 135.153 211.775 133.603 213.559
C 133.574 213.761 133.546 213.964 133.517 214.166 Z
M 198.928 263.618
C 198.886 264.228 198.863 263.929 198.994 264.516
C 199.711 264.889 200.65 265.309 201.454 265.009
C 202.41 263.581 201.801 261.489 199.906 261.489
C 199.375 262.195 199.184 262.789 198.928 263.618 Z"
opacity="1" fill="rgb(60,153,55)" fill-rule="evenodd" />
<path d="
M 139.308 413.943
C 139.335 413.744 139.363 413.546 139.39 413.347
C 140.563 411.944 141.937 410.637 143.814 410.318
C 144.552 410.192 145.357 410.369 146.068 410.135
C 146.379 408.428 146.014 406.667 146.402 404.976
C 147.405 403.742 149.148 403.23 150.548 402.562
C 153.018 401.384 155.39 400.053 157.725 398.625
C 163.678 394.986 168.237 389.354 174.218 385.794
C 177.132 384.758 178.771 385.84 180.985 387.568
C 182.91 385.173 185.194 383.1 187.095 380.659
C 193.46 372.487 199.787 361.406 201.13 350.99
C 202.169 342.925 201.89 334.61 201.915 326.492
C 201.924 323.431 200.853 318.751 202.306 315.987
C 205.117 313.863 208.651 316.547 207.851 319.791
C 206.977 321.321 205.672 321.895 204.334 322.898
C 204.587 326.409 204.376 329.974 204.418 333.496
C 204.508 341.198 204.583 348.878 202.73 356.403
C 201.879 359.862 200.346 363.114 198.878 366.338
C 195.73 373.249 191.72 380.103 186.637 385.778
C 184.777 387.825 183.197 390.122 181.276 392.11
C 180.289 393.13 179.196 394.196 177.684 394.135
C 175.683 394.053 174.154 391.574 174.153 389.747
C 174.152 389.441 174.595 388.314 174.45 388.082
C 174.197 387.676 173.5 388.775 173.425 388.902
C 172.322 391.279 169.987 392.581 168.055 394.244
C 164.051 397.69 159.656 400.586 155.106 403.248
C 153.072 404.438 150.654 405.116 148.743 406.471
C 148.014 407.65 147.469 411.204 147.923 412.59
C 148.499 414.352 150.411 415.701 150.442 417.64
C 150.461 418.818 149.635 418.478 149.136 417.875
C 148.745 416.881 148.182 415.563 146.926 415.867
C 146.494 416.509 145.445 417.83 145.704 418.663
C 146.094 419.921 148.186 419.194 149.01 418.84
C 149.967 422.299 152.414 417.206 153.061 415.731
C 153.964 413.673 152.364 410.812 153.377 408.53
C 154.189 406.699 157.14 405.282 158.771 404.253
C 163.159 401.481 167.208 397.319 171.904 395.138
C 174.748 393.817 177.075 398.504 180.238 396.782
C 184.014 394.727 186.892 390.555 189.613 387.334
C 197.038 378.547 202.513 367.969 205.957 357.019
C 207.429 352.338 208.23 347.585 208.972 342.746
C 209.329 340.411 209.962 337.374 209.435 335.032
C 209.101 333.544 207.035 333.163 206.851 331.536
C 206.62 329.49 207.832 327.3 209.843 326.687
C 210.424 326.729 210.955 326.662 211.531 326.738
C 214.136 327.376 215.395 329.975 214.807 332.482
C 214.459 333.963 212.89 334.526 211.761 335.34
C 212.594 340.697 211.071 347.011 209.81 352.199
C 206.069 367.591 198.45 383.66 186.771 394.684
C 184.556 396.775 182.314 398.948 179.643 400.464
C 178.566 401.076 177.393 401.473 176.345 402.165
C 174.655 403.279 173.346 405.123 171.823 406.462
C 170.132 407.95 168.123 409.007 166.406 410.434
C 165.98 412.005 165.806 414.094 163.898 414.703
C 161.625 415.428 156.607 414.068 158.629 410.888
C 160.606 407.781 163.627 409.503 166.155 408.013
C 169.066 406.297 171.024 402.805 174.005 401.354
C 174.943 400.897 176.931 400.444 177.986 400.31
C 178.38 400.26 178.992 400.693 179.333 400.367
C 179.656 400.058 179.463 399.602 179.269 399.316
C 177.176 399.193 174.965 397.817 173.035 397.025
C 169.557 398.875 166.982 402.362 163.64 404.5
C 161.116 406.115 157.42 407.261 155.804 409.968
C 153.8 413.322 155.739 419.247 151.24 421.341
C 149.888 421.97 147.806 421.922 146.545 421.062
C 145.43 420.303 144.64 418.908 143.16 419.011
C 140.597 420.527 137.319 421.109 134.443 421.803
C 127.048 423.586 119.854 424.063 112.266 424.128
C 94.351 424.283 76.429 424.238 58.514 424.189
C 52.054 424.172 45.593 424.129 39.133 424.156
C 36.992 424.165 33.252 424.843 31.372 423.67
C 29.762 421.869 30.767 417.312 30.775 414.996
C 30.8 407.328 30.796 399.66 30.789 391.992
C 30.769 371.494 30.79 350.995 30.76 330.496
C 30.746 320.684 31.639 310.449 30.656 300.685
C 29.835 299.604 28.701 298.858 28.217 297.544
C 28.062 296.192 28.372 294.674 29.554 293.839
C 31.785 292.261 35.992 293.916 35.759 296.83
C 35.36 298.503 33.698 299.359 33.195 300.904
C 32.84 301.998 33.201 303.602 33.227 304.745
C 33.291 307.495 33.29 310.246 33.274 312.996
C 33.218 322.659 33.336 332.324 33.3 341.988
C 33.204 368.352 33.693 394.747 33.333 421.104
C 33.944 421.495 34.813 421.321 35.513 421.351
C 37.347 421.43 39.168 421.473 41.004 421.462
C 47.171 421.426 53.337 421.652 59.502 421.718
C 76.831 421.904 94.169 421.778 111.498 421.722
C 119.905 421.694 128.357 421.286 136.427 418.801
C 137.245 418.549 138.09 418.19 138.943 418.094
C 139.528 418.028 140.426 418.319 140.941 418.06
C 139.962 416.73 139.333 415.676 139.308 413.943 Z
M 30.927 295.974
C 30.86 296.072 30.793 296.17 30.727 296.268
C 30.472 296.965 30.932 297.83 31.467 298.279
C 32.375 298.285 33.369 297.354 32.923 296.425
C 32.303 295.848 31.724 295.91 30.927 295.974 Z
M 141.773 414.438
C 141.757 415.285 142.16 416.062 142.571 416.783
C 143.594 417.781 145.261 418.812 144.443 416.536
C 143.906 416.347 142.971 415.658 143.832 415.169
C 145.114 414.441 147.421 415.363 146.38 413.082
C 144.644 412.358 143.06 413.275 141.773 414.438 Z
M 160.848 411.483
C 161.34 413.495 164.233 412.774 163.928 410.641
C 162.734 409.69 161.745 410.69 160.848 411.483 Z
M 175.899 389.024
C 176.047 389.769 176.195 390.227 176.705 390.801
C 177.613 391.224 179.271 391.296 179.194 389.918
C 178.442 388.779 177.065 388.023 175.899 389.024 Z
M 203.938 317.965
C 203.854 318.67 203.798 319.379 203.805 320.089
C 204.369 321.034 206.378 319.172 206.146 318.168
C 205.582 317.827 204.787 317.554 204.122 317.579
C 204.061 317.708 203.999 317.836 203.938 317.965 Z
M 209.348 330.56
C 209.235 332.054 210.864 332.612 212.103 332.274
C 213.26 331.475 213.052 330.309 212.189 329.311
C 211.557 328.865 210.855 328.99 210.171 329.268
C 209.823 329.684 209.589 330.076 209.348 330.56 Z"
opacity="1" fill="rgb(55,150,55)" fill-rule="evenodd" />
<path d="
M 139.39 413.347
C 139.363 413.546 139.335 413.744 139.308 413.943
C 135.996 414.748 132.879 416.098 129.464 416.678
C 121.294 418.068 113.129 417.666 104.889 417.82
C 90.756 418.084 76.641 418.098 62.501 417.969
C 56.338 417.913 50.171 417.87 44.007 417.913
C 41.651 417.929 38.662 418.309 37.074 416.18
C 36.111 413.683 36.776 410.137 36.777 407.487
C 36.779 401.156 36.784 394.824 36.807 388.493
C 36.865 372.66 36.729 356.826 36.789 340.993
C 36.807 336.354 36.791 331.714 36.787 327.075
C 36.785 324.81 36.401 322.18 36.878 319.96
C 37.201 318.45 39.08 316.874 40.124 315.786
C 43.449 312.321 49.492 308.575 50.157 303.483
C 50.433 301.367 50.229 299.228 50.462 297.111
C 50.596 295.896 50.929 294.497 50.306 293.362
C 48.448 289.973 44.456 287.252 41.722 284.579
C 40.614 283.496 38.823 282.101 38.386 280.552
C 37.944 278.986 38.178 277.121 38.13 275.504
C 38.025 272 38.048 268.491 38.054 264.985
C 38.075 254.669 37.89 244.358 37.847 234.035
C 37.836 231.498 37.849 228.994 38.037 226.47
C 38.131 225.204 37.912 223.75 38.41 222.55
C 39.279 220.455 42.572 217.536 44.508 216.419
C 45.714 215.723 47.383 215.98 48.716 216.04
C 51.383 216.16 54.065 216.22 56.735 216.251
C 67.159 216.372 77.587 216.317 88.013 216.312
C 94.012 216.309 100.012 216.337 106.012 216.331
C 108.43 216.329 111.923 215.656 114.217 216.358
C 115.832 216.853 116.518 218.874 117.949 219.436
C 119.417 218.901 120.861 218.247 122.45 218.568
C 125.414 220.615 125.187 223.728 122.798 226.128
C 120.818 226.474 118.164 225.705 117.032 223.929
C 115.795 221.985 115.839 219.532 113.111 218.754
C 107.919 219.19 102.917 218.81 97.736 218.85
C 84.698 218.95 71.657 218.951 58.618 218.74
C 53.413 218.656 42.897 216.659 40.894 223.57
C 39.774 227.439 40.607 232.494 40.563 236.495
C 40.459 246.16 40.55 255.828 40.548 265.493
C 40.547 268.995 40.636 272.491 40.722 275.991
C 40.754 277.295 40.381 279.308 40.941 280.495
C 41.538 281.762 43.378 282.862 44.398 283.806
C 47.04 286.254 51.281 289.162 52.803 292.467
C 53.47 293.917 53.258 295.844 53.221 297.395
C 53.158 300.097 52.785 302.784 52.76 305.483
C 52.75 306.601 52.827 307.715 52.822 308.834
C 52.821 308.963 52.917 309.722 52.667 309.661
C 52.026 309.099 51.268 308.202 50.413 308.245
C 48.282 311.153 45.52 313.603 43.067 316.235
C 41.884 317.505 40.191 318.982 39.536 320.628
C 38.882 322.274 39.435 324.902 39.389 326.661
C 39.334 328.769 38.96 330.882 38.95 332.979
C 38.937 335.514 39.374 338.066 39.357 340.629
C 39.248 356.247 39.234 371.868 39.27 387.486
C 39.285 394.154 39.274 400.821 39.282 407.488
C 39.285 409.311 38.442 413.366 39.59 414.836
C 42.26 416.208 45.547 415.437 48.427 415.485
C 54.617 415.587 60.808 415.689 67.001 415.672
C 84.423 415.626 101.804 415.794 119.184 415.297
C 125.948 415.103 132.695 412.9 139.39 413.347 Z
M 118.28 221.959
C 118.851 223.469 122.586 223.424 121.608 221.31
C 120.475 221.37 119.301 221.444 118.28 221.959 Z"
opacity="1" fill="rgb(60,153,55)" fill-rule="evenodd" />
<path d="
M 40.841 332.026
C 41.691 329.76 43.374 329.188 45.619 329.268
C 45.992 329.962 45.525 330.719 45.997 331.414
C 46.551 332.23 47.637 332.515 48.052 333.467
C 47.584 334.822 46.061 335.767 45.248 336.935
C 44.691 355.081 45.096 373.339 45.207 391.494
C 45.229 395.05 45.273 398.61 45.137 402.165
C 45.031 404.953 44.423 407.409 47.41 408.84
C 49.801 409.986 53.494 409.292 56.082 409.28
C 62.393 409.25 68.696 409.348 75.006 409.294
C 77.788 409.27 81.587 410.09 84.187 408.851
C 88.49 406.801 89 400.485 92.695 397.742
C 94.163 396.652 96.109 396.872 97.842 396.835
C 101.905 396.747 105.966 396.912 110.029 396.806
C 111.709 396.762 113.995 396.269 115.588 396.88
C 117.029 397.434 118.239 399.301 119.198 400.451
C 120.834 400.914 122.718 399.807 124.32 399.486
C 128.982 398.553 133.518 397.782 137.954 395.987
C 151.406 390.543 163.537 381.161 172.26 369.582
C 175.733 364.974 177.654 359.475 180.915 354.768
C 181.441 354.008 182.299 353.613 182.898 352.933
C 182.855 352.576 181.253 352.174 180.883 352.027
C 180.099 351.48 180.522 350.53 180.808 349.753
C 181.469 347.962 183.131 346.557 185.027 346.389
C 186.675 347.356 187.848 350.012 187.257 351.873
C 186.781 353.37 184.427 353.937 183.661 355.437
C 180.818 361 178.063 366.58 174.429 371.697
C 165.68 384.015 152.528 392.334 139.068 398.463
C 137.533 399.162 136.015 400.205 134.391 400.671
C 131.308 401.555 128.1 401.6 124.938 401.888
C 122.891 402.074 120.571 402.873 118.525 402.383
C 116.959 402.008 115.975 400.117 114.591 399.349
C 110.009 398.3 104.446 399.252 99.752 399.231
C 98.341 399.225 95.756 398.709 94.587 399.63
C 90.872 402.554 90.235 408.774 85.72 411.013
C 82.744 412.489 78.223 411.665 75.011 411.674
C 68.869 411.69 62.726 411.684 56.584 411.738
C 53.686 411.763 50.121 412.35 47.317 411.482
C 45.806 411.014 43.508 409.582 42.911 408.033
C 42.34 406.552 42.655 404.562 42.674 403
C 42.716 399.67 42.703 396.336 42.692 393.006
C 42.641 376.896 42.616 360.776 42.802 344.668
C 42.826 342.555 43.511 339.151 42.73 337.173
C 42.461 336.493 41.711 336.118 41.339 335.501
C 40.702 334.441 40.663 333.213 40.841 332.026 Z
M 42.967 333.087
C 42.967 333.762 43.058 334.251 43.425 334.825
C 45.392 334.559 45.569 331.157 43.48 332.135
C 43.016 332.778 43.169 332.451 42.967 333.087 Z
M 183.336 350.031
C 183.317 350.271 183.297 350.512 183.278 350.752
C 185.193 353.298 187.004 348.492 184.12 349.08
C 183.548 349.679 183.809 349.362 183.336 350.031 Z"
opacity="1" fill="rgb(55,154,54)" fill-rule="evenodd" />
<path d="
M 43.881 226.548
C 45.986 221.007 52.66 222.586 57.273 222.565
C 66.178 222.525 75.09 222.714 83.997 222.709
C 86.75 222.708 89.502 222.729 92.254 222.722
C 93.421 222.719 94.688 222.972 95.833 222.719
C 98.071 221.136 99.671 221.04 102.4 221.508
C 103.253 221.899 104.307 221.838 105.214 222.11
C 107.279 222.728 108.779 224.854 109.67 226.71
C 112.706 227.37 116.391 227.225 119.523 227.416
C 123.376 227.652 127.247 228.408 131.017 229.222
C 138.424 230.819 146.463 234.099 152.915 238.066
C 154.306 238.921 155.347 240.224 156.719 241.082
C 156.729 239.808 156.362 238.676 156.852 237.432
C 158.237 235.797 160.572 235.475 162.467 236.447
C 163.674 237.065 164.55 238.295 165.526 239.207
C 167.945 241.468 170.437 243.641 172.776 245.991
C 180.554 253.803 187.431 262.902 191.85 273.095
C 194.761 279.81 196.213 286.883 198.866 293.656
C 199.256 294.141 200.407 292.919 200.987 292.736
C 202.762 292.175 205.365 292.024 206.17 294.161
C 206.743 295.682 206.371 297.467 206.331 299.045
C 206.237 302.76 206.902 306.826 204.547 310.009
C 203.178 311.859 199.173 313.624 198.749 315.931
C 198.155 319.164 198.774 322.822 198.786 326.098
C 198.805 331.738 198.578 337.36 198.429 342.992
C 198.359 345.647 198.616 348.396 198.292 351.035
C 197.639 356.362 193.931 361.65 191.758 366.485
C 189.29 371.162 186.522 375.872 183.57 380.259
C 182.601 381.7 180.656 383.702 178.776 382.575
C 177.679 381.918 176.919 380.451 176.927 379.184
C 176.932 378.228 177.54 377.629 177.037 376.692
C 175.342 377.385 174.549 379.535 173.477 380.921
C 171.612 383.332 169.422 385.528 167.179 387.586
C 161.928 392.404 156.093 395.732 150.13 399.532
C 148.014 400.88 145.21 401.778 143.378 403.473
C 142.993 404.602 143.057 405.953 143.012 407.144
C 142.772 407.66 142.016 407.802 141.598 408.196
C 140.216 409.496 139.491 411.55 137.334 410.995
C 137.259 409.976 138.66 408.648 139.117 407.737
C 140.04 405.901 139.977 404.007 140.597 402.117
C 141.684 400.652 143.826 399.877 145.399 399.02
C 148.781 397.18 152.253 395.371 155.424 393.178
C 163.218 387.789 169.215 381.522 175.447 374.479
C 176.741 373.017 178.617 372.265 179.796 370.712
C 182.648 366.954 183.876 362.202 185.86 357.994
C 186.984 355.61 188.886 353.393 189.491 350.8
C 190.037 348.46 189.812 345.847 189.904 343.46
C 190.112 338.085 190.083 332.702 190.255 327.321
C 190.587 316.938 191.638 306.428 190.068 296.091
C 187.333 278.091 176.736 259.768 162.433 248.408
C 152.588 240.589 141.666 234.364 129.303 231.648
C 124.691 230.634 120.015 230.056 115.293 230.014
C 113.639 229.999 110.114 230.558 108.795 229.461
C 107.817 228.086 105.701 223.174 103.933 223.464
C 103.624 224.523 103.73 225.537 103.292 226.595
C 101.956 228.936 98.774 230.387 96.422 228.164
C 95.65 227.435 95.623 226.293 94.978 225.489
C 91.04 224.656 86.524 225.209 82.514 225.205
C 74.68 225.198 66.846 225.209 59.012 225.178
C 55.39 225.164 49.484 223.856 46.966 227.136
C 45.982 228.418 46.186 229.966 46.194 231.496
C 46.207 234.329 46.235 237.161 46.226 239.995
C 46.188 251.936 45.752 264.049 46.282 275.975
C 46.362 277.778 48.138 278.98 49.36 280.155
C 51.485 282.197 53.65 284.195 55.72 286.295
C 56.684 287.273 57.925 288.324 58.501 289.601
C 59.072 290.87 59.096 292.852 59.249 294.241
C 59.298 294.681 59.431 295.692 58.966 295.923
C 58.352 296.052 57.785 295.926 57.203 295.715
C 56.063 294.022 57.133 291.761 55.744 290.071
C 53.117 286.875 49.956 284.119 47.018 281.22
C 46.255 280.468 44.022 279.138 43.767 278.139
C 43.346 276.491 43.736 274.204 43.741 272.492
C 43.752 268.327 43.698 264.162 43.72 259.997
C 43.758 252.499 43.756 244.999 43.736 237.501
C 43.727 234.043 43.11 229.919 43.881 226.548 Z
M 98.047 225.097
C 98.128 225.622 98.264 225.964 98.524 226.425
C 99.512 226.994 100.919 226.679 101.372 225.573
C 101.411 224.928 101.322 224.335 101.26 223.694
C 100.468 222.794 98.978 223.603 98.269 224.253
C 98.02 224.861 98.073 224.575 98.047 225.097 Z
M 158.35 241.045
C 158.051 241.97 159.494 243.371 159.922 244.184
C 160.574 244.684 161.829 243.778 162.556 243.612
C 163.847 245.828 165.658 247.305 167.45 249.121
C 170.489 252.197 173.593 255.308 176.226 258.748
C 185.625 271.025 192.565 285.568 193.337 301.171
C 195.003 301.21 196.373 301.172 197.764 302.239
C 199.954 303.92 199.814 307.438 197.274 308.82
C 195.925 309.553 194.356 308.645 192.973 308.819
C 192.941 318.708 192.761 328.571 192.47 338.47
C 192.343 342.788 193.243 348.139 191.964 352.287
C 191.338 354.316 190.065 356.21 189.128 358.108
C 187.422 361.565 185.962 365.136 184.205 368.574
C 183.517 369.921 182.703 371.252 181.801 372.467
C 181.593 372.747 181.029 373.16 180.978 373.53
C 180.946 373.76 183.885 373.706 184.231 373.623
C 186.474 371.233 187.894 367.721 189.343 364.81
C 190.665 362.157 191.786 359.428 193.062 356.755
C 193.962 354.869 195.16 352.948 195.573 350.876
C 196.119 348.136 195.794 345.264 195.953 342.491
C 196.323 336.039 196.169 329.538 196.195 323.072
C 196.206 320.447 195.902 317.569 196.329 314.974
C 196.68 312.845 199.56 311.732 201.021 310.424
C 203.745 307.987 203.949 305.995 203.938 302.586
C 203.933 301.36 204.186 300.208 203.704 299.058
C 200.733 299.664 198.882 300.36 195.898 298.978
C 195.219 297.28 196.203 294.928 195.785 293.048
C 194.408 286.856 192.276 280.515 189.685 274.726
C 187.48 269.799 184.473 265.189 181.413 260.76
C 179.399 257.843 177.57 254.908 175.152 252.29
C 172.376 249.284 169.446 246.328 166.425 243.57
C 165.366 242.604 163.888 242.04 162.958 240.976
C 162.602 240.39 162.377 239.766 162.074 239.153
C 160.694 238.942 159.227 240.039 158.35 241.045 Z
M 178.339 377.035
C 178.284 377.526 178.202 377.777 178.342 378.254
C 179.078 380.775 184.282 375.852 181.373 375.082
C 180.251 375.405 178.998 376.031 178.339 377.035 Z
M 193.774 304.284
C 193.665 305.162 193.692 305.809 194.035 306.629
C 195.659 307.271 196.391 305.781 196.269 304.295
C 195.559 303.939 194.518 304.084 193.774 304.284 Z
M 199.92 296.603
C 200.005 297.305 199.861 297.017 200.302 297.489
C 201.464 297.707 203.024 297.294 203.788 296.336
C 203.763 295.295 203.27 294.632 202.386 294.121
C 200.929 294.273 200.552 295.465 199.92 296.603 Z"
opacity="1" fill="rgb(68,157,63)" fill-rule="evenodd" />
<path d="
M 46.476 323.586
C 47.625 320.875 51.999 318.91 53.556 322.558
C 54.524 324.826 52.337 327.165 51.202 328.849
C 50.768 330.142 51.12 331.888 51.128 333.257
C 51.148 337.005 51.27 340.745 51.248 344.496
C 51.171 357.326 51.355 370.159 51.261 382.99
C 51.231 387.158 51.251 391.326 51.184 395.495
C 51.158 397.075 50.723 399.536 51.657 400.92
C 52.761 402.556 54.58 402.203 56.296 402.193
C 60.036 402.172 63.816 402.162 67.545 402.412
C 68.33 402.053 68.796 401.167 69.493 400.662
C 71.345 399.318 73.891 400.434 75.2 401.976
C 75.839 404.022 75.046 405.916 73.155 406.894
C 69.729 408 68.85 405.976 66.701 404.04
C 63.595 404.359 60.354 404.3 57.229 404.3
C 54.357 404.3 51.759 404.438 49.614 402.182
C 48.563 401.076 48.809 399.3 48.804 397.886
C 48.792 394.424 48.785 390.961 48.736 387.499
C 48.533 373.17 48.726 358.823 48.747 344.491
C 48.752 340.919 48.703 337.34 48.869 333.771
C 48.933 332.399 49.507 329.923 48.736 328.719
C 47.568 327.565 46.485 326.866 46.294 325.089
C 46.294 324.553 46.34 324.105 46.476 323.586 Z
M 48.445 324.559
C 48.426 325.319 48.572 325.817 48.952 326.469
C 50.698 327.541 51.895 324.65 51.397 323.311
C 50.759 322.713 49.899 322.991 49.13 323.201
C 48.789 323.672 48.633 324.022 48.445 324.559 Z
M 69.791 402.98
C 69.449 404.659 71.168 405.051 72.437 404.453
C 73.989 403.106 71.186 401.435 69.791 402.98 Z"
opacity="0.996" fill="rgb(52,150,51)" fill-rule="evenodd" />
<path d="
M 186.519 335.485
C 185.801 336.574 184.618 337.159 185.78 338.525
C 185.812 340.173 186.045 342.05 185.376 343.608
C 183.965 344.505 182.718 345.396 181.367 346.365
C 180.906 346.696 180.597 347.051 180.229 346.559
C 180.707 344.897 182.147 343.957 182.905 342.471
C 182.967 341.623 182.64 341.127 182.201 340.434
C 182.061 338.643 182.753 335.321 183.546 333.693
C 183.882 333.001 184.595 332.63 184.91 331.974
C 185.039 330.874 184.699 329.778 184.678 328.675
C 184.612 325.11 184.708 321.527 184.758 317.961
C 184.845 311.825 184.957 305.616 184.429 299.505
C 184.257 297.521 184.479 295.578 183.99 293.618
C 178.165 270.259 160.667 249.381 137.986 240.9
C 130.961 238.274 123.571 236.284 116.058 235.882
C 109.213 235.515 102.332 236.345 95.487 235.825
C 92.192 235.575 91.516 232.389 88.92 231.071
C 87.418 230.308 84.662 230.831 83 230.845
C 78.329 230.883 72.967 230.157 68.504 231.391
C 65.078 231.85 61.421 231.322 57.978 231.227
C 56.334 231.182 54.477 230.89 53.186 232.137
C 52.315 232.979 52.371 234.243 52.367 235.377
C 52.358 237.615 52.387 239.853 52.398 242.092
C 52.437 249.723 52.35 257.355 52.319 264.986
C 52.311 267.152 52.317 269.319 52.341 271.485
C 52.351 272.34 52.062 273.622 52.448 274.412
C 52.965 275.471 54.242 276.434 55.055 277.276
C 57.661 279.972 61.521 282.739 63.065 286.249
C 63.709 287.712 62.617 289.076 62.873 290.507
C 63.172 292.174 64.039 293.384 63.744 295.175
C 63.316 295.911 61.942 296.163 61.237 295.773
C 60.791 294.8 60.092 293.583 60.186 292.484
C 60.351 290.549 61.638 289.351 60.742 287.306
C 59.219 283.832 55.786 281.083 53.116 278.53
C 52.135 277.593 50.755 276.591 50.097 275.388
C 49.602 274.484 49.872 272.995 49.858 271.989
C 49.823 269.489 49.832 266.989 49.822 264.489
C 49.793 257.158 49.857 249.823 49.787 242.493
C 49.756 239.192 48.944 234.947 50.082 231.806
C 51.441 228.057 55.527 228.619 58.704 228.722
C 61.637 228.817 64.423 228.404 67.333 228.311
C 72.204 228.157 77.135 228.399 82.013 228.4
C 84.406 228.4 86.8 228.388 89.193 228.373
C 89.813 228.369 91.477 228.079 91.796 228.554
C 93.411 235.439 102.006 233.33 107.255 233.205
C 122.781 232.834 137.971 236.138 151.316 244.379
C 168.427 254.947 183.393 273.605 186.574 293.927
C 188.708 307.555 186.661 321.836 186.519 335.485 Z"
opacity="1" fill="rgb(71,159,64)" fill-rule="evenodd" />
<path d="
M 52.409 314.535
C 53.316 312.698 54.305 310.515 56.035 309.311
C 59.767 310.728 51.691 315.375 56.491 316.49
C 56.562 316.507 56.786 314.973 56.793 314.92
C 56.965 313.717 57.165 312.227 58.461 311.817
C 59.522 313.462 59.085 316.07 59.134 317.963
C 59.26 322.847 59.313 327.695 58.88 332.537
C 60.195 334.126 62.2 334.987 61.747 337.494
C 61.221 338.831 60.226 339.759 58.956 340.393
C 56.473 341.157 53.667 339.254 53.631 336.496
C 53.601 334.146 56.522 333.209 56.809 331.015
C 57.386 326.6 56.18 322.132 56.492 317.754
C 56.522 317.214 52.958 317.351 52.131 316.634
C 52.048 315.885 52.154 315.236 52.409 314.535 Z
M 56.344 336.592
C 56.546 337.258 56.734 337.716 57.272 338.176
C 59.272 338.375 59.993 335.106 57.483 335.347
C 56.989 335.719 56.648 336.051 56.344 336.592 Z"
opacity="0.996" fill="rgb(55,152,53)" fill-rule="evenodd" />
<path d="
M 164.233 270.2
C 165.67 270.999 165.036 274.831 163.007 274.518
C 161.934 273.664 161.182 272.391 160.203 271.425
C 156.713 267.98 153.215 264.442 149.388 261.366
C 142.677 255.972 134.709 252.104 126.515 249.62
C 123.36 248.664 120.26 248.228 117.017 247.74
C 115.42 247.5 113.48 247.13 112.026 248.035
C 111.603 248.6 110.758 249.664 110.907 250.455
C 111.123 251.604 113.214 252.438 114.218 252.371
C 114.012 251.314 113.896 250.374 114.018 249.291
C 114.766 248.964 115.531 248.895 116.284 249.237
C 116.629 249.791 116.746 250.409 117.107 250.957
C 121.775 250.965 126.423 252.904 130.732 254.554
C 142.029 258.88 153.22 266.72 159.727 277.132
C 161.78 280.416 163.181 284.117 164.593 287.714
C 165.283 287.816 167.361 287.374 167.903 286.949
C 167.753 285.406 166.53 283.029 165.509 281.871
C 164.607 280.85 163.308 280.323 162.811 278.978
C 162.824 277.318 164.267 275 165.692 274.19
C 166.387 274.349 168.327 275.41 168.978 274.889
C 169.364 274.58 168.728 273.688 168.586 273.397
C 167.789 271.771 166.653 270.646 165.564 269.252
C 162.6 264.555 157.946 260.374 153.554 257.053
C 143.361 249.344 131.793 243.727 119.006 241.969
C 110.992 240.867 102.884 241.814 94.841 241.717
C 92.353 241.687 89.837 240.68 87.46 240.695
C 84.22 241.82 82.389 242.016 80.809 238.586
C 80.02 237.737 76.501 238.325 75.334 238.347
C 71.113 238.424 66.243 237.587 62.143 238.665
C 60.949 238.98 59.457 239.297 58.51 240.117
C 57.92 242.548 58.265 245.349 58.328 247.842
C 58.441 252.345 58.524 256.877 58.545 261.378
C 58.559 264.398 57.843 268.664 58.88 271.523
C 59.982 274.558 63.941 277.226 66.156 279.45
C 67.244 280.541 68.587 281.692 68.835 283.299
C 69.17 285.465 68.908 287.805 68.898 289.991
C 68.878 294.32 68.839 298.651 68.8 302.981
C 68.779 305.273 68.125 308.775 69.046 310.892
C 69.735 311.53 70.281 311.904 69.874 312.897
C 68.807 313.994 67.813 314.919 66.964 316.214
C 66.77 316.511 66.35 317.49 65.929 317.51
C 65.453 317.532 64.901 316.656 64.627 316.343
C 63.622 315.192 61.584 314.443 61.094 312.972
C 61.765 310.77 64.484 310.169 65.968 308.663
C 67.224 303.102 66.225 296.416 66.223 290.732
C 66.222 288.499 66.816 285.377 65.844 283.303
C 63.82 278.981 58.289 276.811 56.467 272.431
C 55.834 270.91 56.21 268.629 56.188 267.003
C 56.134 262.989 56.147 258.964 56.038 254.951
C 55.925 250.774 56.018 246.65 56.043 242.477
C 56.051 241.079 55.747 238.756 56.628 237.595
C 57.847 237.555 59.18 237.952 60.383 237.69
C 60.739 237.612 61.646 237.284 61.199 236.839
C 60.282 236.602 57.655 236.601 57.851 235.437
C 60.307 234.998 62.955 235.682 65.441 235.68
C 69.969 235.675 74.656 235.092 79.16 235.707
C 79.986 235.819 80.625 236.339 81.416 236.523
C 81.667 235.934 81.908 235.343 82.188 234.767
C 85.12 231.907 88.141 235.931 89.135 238.354
C 89.942 238.656 91.022 238.474 91.887 238.557
C 94.158 238.775 96.405 238.864 98.686 238.877
C 105.712 238.917 112.898 238.359 119.876 239.299
C 139.884 241.992 159.85 254.457 170.574 271.646
C 174.003 277.143 178.161 284.49 178.211 291.123
C 179.738 291.121 181.521 291.712 182.326 293.106
C 184.014 296.032 181.184 300.031 177.9 298.166
C 177.147 297.436 177.283 296.129 176.497 295.506
C 175.802 294.511 175.221 294.148 175.68 292.832
C 177.95 288.531 173.669 283.661 171.887 280.124
C 171.306 278.971 170.926 275.867 169.371 276.212
C 168.648 277.129 167.743 278.006 167.369 279.134
C 167.641 280.25 168.932 281.033 169.556 281.973
C 170.188 282.925 170.363 284.178 170.908 285.191
C 172.328 287.83 174.365 290.279 174.299 293.475
C 174.278 293.981 174.269 294.482 174.275 294.988
C 174.465 296.49 175.247 297.672 175.636 299.104
C 175.813 299.76 175.8 300.537 176.212 301.087
C 178.927 301.52 181.603 303.65 180.809 306.669
C 180.16 308.169 179.148 309.086 177.881 310.089
C 178.854 313.332 178.689 316.607 178.707 319.995
C 178.732 325.03 178.726 329.962 178.268 334.929
C 178.085 336.921 178.983 338.687 179.136 340.638
C 179.294 342.655 178.651 344.96 178.505 346.971
C 178.464 347.541 178.744 348.002 178.776 348.554
C 178.853 349.869 178.102 351.959 177.761 353.258
C 176.682 357.375 174.415 360.94 172.061 364.429
C 165.012 374.875 155.163 384.184 143.837 389.847
C 138.014 392.759 131.858 395.218 125.341 395.981
C 123.795 396.161 122.005 396.707 120.466 396.514
C 118.929 395.137 118.295 392.603 116.358 391.615
C 115.372 391.112 113.537 391.699 112.516 391.896
C 109.533 392.471 106.715 393.052 103.663 393.163
C 96.024 393.44 88.35 393.15 80.707 393.142
C 76.968 393.139 73.156 393.526 69.433 393.33
C 68.582 395.035 67.618 396.756 65.442 396.742
C 62.69 396.724 60.218 393.305 62.534 391.082
C 64.099 389.58 66.149 390.483 67.994 390.799
C 70.852 391.288 74.103 390.815 77 390.766
C 85.89 390.616 95.133 391.495 103.972 390.602
C 106.828 390.313 109.635 389.678 112.464 389.211
C 113.751 388.999 115.628 388.549 116.892 389.041
C 119.016 389.868 120.064 392.331 121.668 393.779
C 128.774 393.79 135.24 390.773 141.436 387.669
C 152.993 381.877 162.511 373.387 169.577 362.515
C 171.827 359.054 174.19 355.58 175.623 351.675
C 176.133 350.283 176.632 348.133 176.554 346.642
C 176.475 345.106 175.267 344.089 175.791 342.473
C 175.872 342.509 176.785 343.133 176.845 343.13
C 177.857 343.078 177.618 340.077 177.633 339.494
C 177.503 338.541 177.556 337.581 177.501 336.621
C 177.376 336.06 177.209 335.642 176.869 335.179
C 175.623 335.893 176.205 337.786 176.213 338.961
C 176.091 339.794 176.111 340.66 175.891 341.472
C 175.167 341.124 174.886 339.677 174.742 338.953
C 174.152 335.984 175.238 334.318 175.737 331.503
C 176.184 328.983 175.885 326.2 175.86 323.65
C 175.832 320.705 175.881 317.76 175.808 314.815
C 175.776 313.527 175.971 311.937 175.504 310.714
C 175.122 309.712 174.038 309.014 173.33 308.242
C 172.595 307.139 172.546 304.532 173.383 303.458
C 173.747 302.992 174.796 302.729 174.921 302.152
C 173.379 300.196 172.161 298.345 171.457 295.9
C 170.634 293.041 171.672 289.929 167.436 290.15
C 166.812 290.183 166.382 290.256 165.807 290.502
C 165.713 291.743 166.755 291.791 167.657 292.243
C 168.178 293.293 167.775 294.839 167.935 296.004
C 168.265 298.418 168.967 300.801 169.441 303.19
C 169.749 304.74 169.776 306.574 170.379 308.036
C 171.437 310.607 174.428 311.047 173.161 314.512
C 171.493 317.478 166.56 316.337 166.085 312.974
C 165.895 311.624 167.029 310.899 167.716 309.932
C 168.04 308.927 167.319 307.687 167.182 306.659
C 166.731 303.283 165.986 299.934 165.382 296.582
C 165.078 294.897 164.995 293.102 164.535 291.452
C 163.888 289.13 161.939 286.657 160.823 284.493
C 154.784 272.776 144.243 263.106 132.079 257.974
C 128.964 256.659 125.762 255.713 122.563 254.631
C 121.089 254.132 119.228 253.214 117.652 253.405
C 116.495 253.893 115.518 254.729 114.191 254.569
C 112.305 254.342 111.084 252.679 109.093 252.669
C 100.566 252.628 92.032 252.948 83.496 252.872
C 80.739 252.847 77.979 252.785 75.222 252.783
C 74.318 252.782 72.85 252.565 72.126 253.139
C 71.192 255.292 69.639 257.523 67.004 257.447
C 66.212 257.121 65.797 256.437 64.887 256.319
C 64.633 257.821 64.807 259.458 64.771 260.988
C 64.707 263.645 64.051 266.968 65.503 269.37
C 67.041 271.916 69.241 274.153 71.289 276.289
C 72.353 277.399 73.852 278.604 74.384 280.087
C 75.319 282.69 74.758 286.258 74.767 288.985
C 74.787 294.986 74.855 300.987 74.847 306.987
C 74.843 309.831 75.664 314.089 74.632 316.738
C 72.619 319.009 69.74 319.98 67.603 322.077
C 63.674 326.505 67.655 334.203 66.268 339.433
C 65.197 343.473 59.349 345.197 58.288 349.437
C 57.359 353.148 58.048 357.744 58.104 361.548
C 58.208 368.713 58.1 375.893 57.929 383.008
C 59.525 385.32 63.012 386.797 60.643 390.093
C 60.289 390.585 59.903 390.947 59.38 391.248
C 56.725 392.058 52.671 389.769 53.402 386.559
C 53.721 385.159 55.324 384.599 55.767 383.474
C 56.062 375.55 55.634 367.446 55.612 359.502
C 55.603 356.045 54.952 351.84 55.86 348.489
C 57.06 344.06 62.752 342.447 63.633 337.913
C 64.303 334.467 63.727 330.357 63.672 326.842
C 63.65 325.45 63.413 323.814 63.838 322.466
C 64.991 318.808 70.615 318.289 71.792 314.886
C 72.38 312.431 72.183 309.735 72.242 307.224
C 72.366 301.895 72.259 296.545 72.233 291.215
C 72.218 288.041 72.85 283.814 71.661 280.818
C 69.888 276.349 64.479 274.149 62.262 269.851
C 61.705 268.772 61.874 267.39 61.945 266.219
C 62.091 263.81 62.155 261.404 62.217 258.991
C 62.265 257.074 61.889 253.596 63.21 252.066
C 66.078 248.745 69.836 250.347 73.649 250.37
C 82.406 250.423 91.163 250.448 99.921 250.379
C 102.555 250.358 105.493 250.631 108.043 249.886
C 108.854 249.649 110.853 249.01 110.008 247.896
C 108.393 247.263 106.442 247.335 104.724 247.263
C 101.495 247.129 98.262 247.126 95.03 247.115
C 85.072 247.084 74.939 246.403 65.001 246.917
C 64.437 247.464 64.412 248.055 64.163 248.773
C 63.678 249.236 62.843 248.865 62.286 248.676
C 61.587 247.417 61.825 245.676 62.369 244.395
C 63.698 243.074 67.616 243.923 69.387 244.002
C 75.754 244.284 82.126 244.313 88.494 244.482
C 94.113 244.631 99.778 244.794 105.399 244.73
C 110.588 244.671 115.74 244.377 120.878 245.336
C 133.041 247.607 144.605 253.511 153.914 261.592
C 157.235 264.475 159.983 267.794 163.088 270.868
C 163.529 270.807 163.864 270.436 164.233 270.2 Z
M 55.811 386.958
C 55.955 388.602 57.202 389.325 58.741 388.66
C 59.347 387.84 58.841 386.796 58.22 386.141
C 58.123 386.091 58.025 386.042 57.928 385.992
C 57.066 386.007 56.347 386.234 55.811 386.958 Z
M 63.931 312.49
C 63.845 312.666 63.758 312.842 63.672 313.018
C 64.146 313.758 64.387 314.086 65.275 314.035
C 66.218 313.632 66.771 313.084 66.497 312.043
C 65.751 311.72 64.69 312.259 63.931 312.49 Z
M 64.332 393.092
C 64.458 393.774 64.576 394.266 64.995 394.827
C 66.094 395.093 67.203 394.284 66.836 393.108
C 65.978 392.4 65.123 392.331 64.332 393.092 Z
M 65.388 253.605
C 66.77 256.619 70.254 253.184 67.424 251.776
C 66.522 251.855 66.001 252.535 65.519 253.253
C 65.475 253.37 65.432 253.488 65.388 253.605 Z
M 83.387 236.918
C 83.198 237.776 83.048 238.455 83.716 239.117
C 84.587 239.229 85.326 238.941 85.979 238.362
C 86.199 237.191 84.601 236.727 83.731 236.691
C 83.616 236.766 83.502 236.842 83.387 236.918 Z
M 168.925 312.033
C 168.484 313.598 169.99 314.183 171.246 313.675
C 171.807 312.872 170.592 311.311 169.798 311.212
C 169.115 311.588 169.419 311.328 168.925 312.033 Z
M 174.916 305.009
C 175.124 307.139 178.298 308.699 178.912 305.972
C 178.733 303.932 176.515 303.434 175.109 304.62
C 175.044 304.75 174.98 304.879 174.916 305.009 Z
M 177.939 294.632
C 178.097 295.355 177.988 294.999 178.266 295.697
C 178.741 296.059 179.617 296.116 180.118 295.746
C 180.478 294.366 179.891 292.956 178.394 293.609
C 178.074 294.364 178.229 294.024 177.939 294.632 Z"
opacity="1" fill="rgb(69,157,64)" fill-rule="evenodd" />
<path d="
M 55.357 304.525
C 56.064 303.102 57.761 301.324 59.447 301.192
C 61.519 301.03 63.187 303.698 62.695 305.528
C 62.063 306.992 60.481 308.477 58.872 308.801
C 56.822 309.213 55.02 306.168 55.357 304.525 Z
M 57.841 305.019
C 57.559 308.631 61.925 305.897 60.084 303.227
C 59.028 303.361 58.293 304.05 57.841 305.019 Z"
opacity="0.996" fill="rgb(54,145,52)" fill-rule="evenodd" />
<path d="
M 61.88 350.037
C 63.526 346.417 68.838 346.788 69.139 351.087
C 69.276 353.045 67.425 353.675 66.437 355.023
C 66.349 360.707 66.795 366.41 66.768 372.106
C 66.76 373.935 66.789 375.772 66.693 377.599
C 66.656 378.299 66.301 379.288 66.496 379.927
C 69.973 379.367 71.758 381.128 73.858 383.546
C 75.551 384.243 78.596 383.613 80.452 383.598
C 83.439 383.573 86.459 383.392 89.441 383.47
C 91.8 383.532 94.427 383.951 96.761 383.634
C 97.382 382.776 98.093 381.92 99.012 381.38
C 101.815 380.923 102.92 382.002 105.235 383.06
C 107.475 383.395 109.894 383.238 112.074 382.631
C 113.395 382.263 115.107 381.136 116.486 381.352
C 118.828 381.719 121.35 383.594 123.073 385.111
C 124.172 386.078 125.277 387.573 126.881 387.377
C 130.072 386.987 133.439 385.25 136.329 383.908
C 145.006 379.877 152.768 374.174 159.098 366.986
C 161.557 364.194 164.921 360.959 166.012 357.31
C 167.086 353.715 162.211 352.575 162.335 349.536
C 162.436 347.085 164.309 344.545 165.055 342.228
C 166.437 337.936 167.27 333.418 168.151 329.013
C 167.521 327.713 166.374 327.188 166.371 325.5
C 166.363 320.003 174.627 321.445 173.808 325.94
C 173.104 327.784 171.462 328.881 169.971 330.029
C 169.546 334.484 168.831 338.914 167.696 343.256
C 167.222 345.069 165.909 347.222 165.9 349.077
C 165.885 352.074 170.327 353.69 169.506 356.654
C 167.396 364.266 159.89 370.231 154.466 375.458
C 148.317 381.03 141.127 384.902 133.468 387.992
C 131.04 388.972 127.897 391.064 125.178 390.508
C 122.459 389.225 121.2 385.88 118.407 384.567
C 116.887 383.853 115.333 384.566 113.83 384.929
C 112.129 385.339 110.335 385.393 108.593 385.381
C 107.574 385.374 106.038 385.047 105.124 385.494
C 104.221 386.918 102.669 389.132 100.726 388.683
C 99.111 388.309 98.03 386.127 96.534 385.936
C 93.706 385.574 90.7 385.883 87.857 385.916
C 84.021 385.96 80.187 385.812 76.351 385.812
C 75.5 385.812 74.391 385.609 73.571 385.842
C 70.997 386.575 69.428 388.754 66.461 387.602
C 64.974 387.025 63.684 385.256 63.959 383.615
C 64.118 382.669 64.856 381.961 65.152 381.071
C 64.847 380.327 64.118 379.848 63.934 379.025
C 63.438 376.815 63.732 374.248 63.77 371.997
C 63.866 366.414 64.456 360.73 63.986 355.163
C 62.356 353.584 61.344 352.512 61.88 350.037 Z
M 63.946 351.05
C 63.903 351.824 63.88 351.456 63.995 352.155
C 65.121 352.774 67.767 352.068 66.708 350.46
C 65.937 350.133 65.328 350.179 64.519 350.36
C 64.008 350.828 64.173 350.579 63.946 351.05 Z
M 65.968 383.098
C 65.942 384.15 66.465 384.814 67.156 385.559
C 67.973 385.942 69.526 385.517 69.939 384.635
C 69.895 383.599 69.563 382.699 68.631 382.198
C 67.727 382.018 67.137 381.955 66.312 382.375
C 66.198 382.616 66.083 382.857 65.968 383.098 Z
M 98.839 384.568
C 99.56 387.846 104.526 385.928 102.606 383.211
C 100.925 382.328 99.634 383.035 98.839 384.568 Z
M 168.932 326.074
C 168.91 326.753 168.875 326.414 169.042 327.09
C 171.527 328.163 172.388 324.047 169.438 324.767
C 169.238 325.205 169.128 325.639 168.932 326.074 Z"
opacity="1" fill="rgb(59,153,55)" fill-rule="evenodd" />
<path d="
M 67.891 263.545
C 69.304 260.821 73.822 260.76 75.548 263.196
C 76.334 264.305 75.903 265.811 76.766 266.808
C 78.181 268.443 80.798 269.107 81.092 271.553
C 81.357 273.76 80.891 276.09 80.843 278.306
C 80.741 283.03 80.776 287.76 80.792 292.485
C 80.841 307.649 81.058 322.827 80.836 337.989
C 80.765 342.819 80.074 348.286 80.835 353.063
C 81.103 354.749 83.356 355.001 83.254 356.931
C 83.122 359.43 81.764 359.551 80.676 361.304
C 81.587 365.944 81.013 371.584 80.806 376.303
C 83.532 376.711 86.662 376.262 89.43 376.266
C 94.549 376.275 99.858 376.61 104.95 376.037
C 106.952 375.811 107.998 373.482 110.213 373.423
C 112.395 373.365 113.354 375.078 115.205 375.632
C 116.44 376.001 117.913 375.781 119.175 375.704
C 122.284 375.515 125.15 374.457 128.05 373.414
C 138.863 369.524 147.891 362.868 153.399 352.556
C 155.933 347.812 158.181 343.542 159.407 338.267
C 159.779 336.668 160.521 333.951 160.03 332.362
C 159.177 331.118 157.894 330.112 157.669 328.524
C 156.887 323.014 166.782 322.678 165.554 328.646
C 164.944 330.139 163.678 331.097 162.764 332.369
C 161.801 345.223 155.643 358.121 145.77 366.604
C 141.01 370.694 135.906 373.24 130.179 375.554
C 125.22 377.558 120.384 379.076 114.943 378.622
C 113.475 379.149 112.458 380.77 110.915 381.049
C 108.354 381.513 106.577 378.927 104.07 378.882
C 95.57 378.731 86.918 378.578 78.426 378.93
C 77.806 377.399 78.557 374.836 78.612 373.165
C 78.739 369.26 78.225 365.377 78.406 361.493
C 76.609 360.103 74.202 357.784 75.879 355.299
C 76.514 354.359 77.773 353.885 78.296 352.927
C 78.851 350.013 78.43 346.789 78.419 343.833
C 78.401 338.749 78.468 333.688 78.373 328.61
C 78.128 315.489 78.688 302.398 78.484 289.275
C 78.441 286.525 78.356 283.769 78.421 281.018
C 78.53 276.397 79.245 271.032 75.779 267.358
C 74.626 267.616 73.737 268.83 72.416 269.123
C 68.841 269.917 66.993 266.771 67.891 263.545 Z
M 70.414 265.085
C 70.329 265.689 70.393 265.973 70.646 266.52
C 71.724 267.211 73.394 266.817 73.912 265.605
C 73.799 264.847 73.549 264.286 73.155 263.636
C 71.854 263.551 71.177 264.073 70.414 265.085 Z
M 78.418 356.457
C 78.103 357.435 78.244 358.192 78.91 358.971
C 81.361 359.698 81.758 355.522 79.607 355.898
C 79.175 355.974 78.784 356.232 78.418 356.457 Z
M 107.863 376.904
C 107.595 378.489 109.427 379.473 110.887 378.803
C 111.889 378.343 112.882 376.988 113.369 376.026
C 112.751 375.2 111.735 375.24 110.812 375.341
C 110.869 376.227 111.447 378.192 110.067 377.944
C 109.328 377.135 109.079 376.606 107.863 376.904 Z
M 159.841 327.438
C 159.747 328.492 160.586 329.622 161.707 329.684
C 162.297 329.559 162.574 329.197 162.901 328.707
C 163.117 327.95 163.208 327.441 162.788 326.747
C 161.659 326.318 160.752 326.738 159.841 327.438 Z"
opacity="1" fill="rgb(50,149,52)" fill-rule="evenodd" />
<path d="
M 68.831 326.999
C 70.364 323.71 76.468 325.016 75.841 328.741
C 75.332 330.284 74.027 331.433 73.018 332.66
C 72.354 334.662 72.774 337.628 72.776 339.745
C 72.779 345.081 73.06 350.454 72.86 355.784
C 72.787 357.733 72.848 359.683 72.918 361.631
C 72.948 362.479 72.686 363.509 73.159 364.241
C 74.001 364.755 74.678 365.402 75.306 366.16
C 79.214 370.881 69.977 375.494 68.938 369.004
C 68.836 368.367 68.882 367.703 69.111 367.099
C 69.437 366.236 69.945 365.464 70.514 364.744
C 71.386 361.906 70.704 357.961 70.749 354.991
C 70.795 351.929 70.625 348.925 70.494 345.867
C 70.3 341.318 70.946 336.692 70.576 332.147
C 69.213 330.463 68.215 329.33 68.831 326.999 Z
M 70.998 328.581
C 71.028 329.141 71.154 329.525 71.368 330.042
C 72.897 331.01 74.369 328.134 73.031 327.38
C 72.58 327.126 71.955 327.456 71.53 327.589
C 71.002 328.278 71.14 327.929 70.998 328.581 Z
M 70.968 368.05
C 71.035 368.881 71.325 369.439 71.916 370.021
C 73.256 370.37 74.607 369.475 74.273 368.015
C 73.611 367.331 72.624 366.944 71.684 367.13
C 71.025 367.763 71.222 367.428 70.968 368.05 Z"
opacity="1" fill="rgb(45,154,47)" fill-rule="evenodd" />
<path d="
M 77.432 258.084
C 77.711 257.435 77.519 257.788 78.077 257.064
C 81.193 256.877 84.379 257.27 87.509 257.308
C 92.17 257.365 96.881 257.137 101.531 257.445
C 102.15 257.044 102.478 256.166 103.067 255.662
C 104.158 254.728 105.933 254.317 107.336 254.429
C 108.477 255.483 110.458 256.982 110.884 258.525
C 110.531 261.633 106.435 263.829 103.658 262.669
C 102.612 262.232 102.116 261.098 101.66 260.145
C 94.827 260.743 87.767 259.987 80.9 260.191
C 80.637 260.956 80.417 262.059 79.571 262.362
C 78.902 262.445 78.329 262.49 77.689 262.274
C 76.924 261.069 77.2 259.433 77.432 258.084 Z
M 103.981 258.597
C 103.988 259.297 104.093 259.727 104.469 260.318
C 105.645 260.874 107.04 260.521 107.744 259.391
C 107.747 258.263 107.168 257.579 106.427 256.797
C 105.052 256.563 104.29 257.321 103.981 258.597 Z"
opacity="1" fill="rgb(58,150,56)" fill-rule="evenodd" />
<path d="
M 77.366 399.533
C 79.336 394.557 87.779 396.872 85.982 402.209
C 85.354 404.073 83.587 405.701 81.554 405.631
C 78.79 405.536 76.309 402.204 77.366 399.533 Z
M 79.929 399.948
C 79.654 401.099 79.724 402.244 80.609 403.085
C 81.261 403.396 81.911 403.422 82.602 403.217
C 83.585 402.477 83.683 401.21 83.131 400.178
C 82.26 399.248 80.847 398.905 79.929 399.948 Z"
opacity="1" fill="rgb(49,154,44)" fill-rule="evenodd" />
<path d="
M 93.436 408.07
C 94.309 405.936 96.577 404.223 98.967 404.976
C 101.608 405.808 101.251 409.05 100.075 410.839
C 99.596 411.567 99.023 412.164 98.311 412.668
C 95.451 413.466 92.945 410.93 93.436 408.07 Z
M 95.994 409.081
C 96.024 409.792 96.281 410.191 96.737 410.727
C 99.113 411.324 99.621 408.421 98.147 407.097
C 96.89 407.228 96.275 407.894 95.994 409.081 Z"
opacity="0.996" fill="rgb(35,144,34)" fill-rule="evenodd" />
<path d="
M 100.392 403.425
C 103.427 402.386 107.301 402.595 110.491 402.551
C 111.595 402.535 112.923 402.129 113.956 402.564
C 114.921 403.745 115.964 405.211 117.236 406.065
C 120.845 406.536 125.496 405.416 128.912 404.255
C 130.539 403.702 132.999 401.787 134.764 402.648
C 135.808 403.709 137.718 405.051 137.859 406.611
C 136.949 409.452 133.151 410.44 130.591 410.985
C 123.933 412.404 117.189 411.583 110.439 411.847
C 108.052 414.031 106.105 415.173 103.455 412.367
C 102.539 409.88 105.351 408.015 107.584 408.37
C 110.219 408.79 112.754 410.02 115.446 410.42
C 118.879 410.931 122.643 410.259 126.057 409.814
C 128.769 409.46 132.168 409.096 134.073 406.923
C 134.219 406.164 134.192 405.819 133.788 405.133
C 132.729 405.507 131.913 406.368 130.843 406.731
C 129.625 407.145 128.322 407.234 127.066 407.481
C 123.424 408.199 118.923 409.564 115.227 408.566
C 114.103 407.684 113.584 406.178 112.554 405.162
C 110.503 405.27 108.433 405.103 106.384 405.286
C 105.104 405.4 103.835 405.891 102.538 405.783
C 101.251 405.675 100.063 404.81 100.392 403.425 Z
M 105.914 410.456
C 105.755 411.062 105.846 411.489 106.015 412.098
C 107.968 413.432 108.906 409.089 105.914 410.456 Z"
opacity="1" fill="rgb(48,142,49)" fill-rule="evenodd" />
<path d="
M 113.327 259.023
C 114.471 257.521 116.074 255.721 117.955 255.218
C 120.38 255.574 121.69 258.124 123.977 258.853
C 128.09 260.164 132.117 261.418 135.938 263.487
C 148.225 270.138 157.891 282.103 161.671 295.538
C 163.276 301.243 163.432 306.615 163.85 312.462
C 164.026 314.924 167.075 316.619 166.895 319.035
C 166.471 320.249 165.208 321.179 164.111 321.752
C 161.9 322.274 158.518 320.508 158.618 318.01
C 158.692 316.158 160.076 314.663 161.608 313.744
C 161.782 312.734 161.45 311.634 161.411 310.612
C 161.292 307.497 160.893 304.432 160.342 301.367
C 156.952 282.528 141.663 265.134 122.51 261.218
C 119.198 264.653 115.267 263.676 113.2 259.413
C 113.242 259.283 113.285 259.153 113.327 259.023 Z
M 116.833 259.515
C 116.584 260.408 116.51 260.012 116.943 260.721
C 117.978 260.947 118.806 260.768 119.737 260.296
C 120.024 259.14 119.264 257.806 118.036 258.04
C 117.615 258.54 117.189 258.961 116.833 259.515 Z
M 160.795 317.51
C 160.609 319.009 162.537 319.617 163.736 319.13
C 164.401 318.028 162.893 316.222 161.85 316.228
C 161.373 316.539 161.108 317.042 160.795 317.51 Z"
opacity="1" fill="rgb(64,152,58)" fill-rule="evenodd" />
<path d="
M 125.927 380.069
C 126.737 378.353 128.715 377.318 130.512 376.984
C 131.661 376.916 132.959 376.637 134.039 377.102
C 134.594 377.714 134.85 378.683 135.042 379.472
C 135.492 380.676 135.529 377.937 135.956 377.466
C 137.289 375.996 139.536 375.152 141.191 374.092
C 144.734 371.823 148.128 369.132 151.06 366.116
C 153.04 364.079 154.71 361.535 156.988 359.825
C 156.64 359.047 156.088 358.457 156.119 357.538
C 156.14 356.89 156.443 356.263 156.731 355.698
C 159.247 350.761 165.647 356.404 162.745 360.022
C 161.691 361.337 160.052 360.562 158.867 361.425
C 157.583 362.361 156.5 364.238 155.486 365.468
C 153.486 367.448 151.498 369.455 149.509 371.446
C 144.198 375.772 138.31 380.112 132.118 383.122
C 129.304 384.49 125.505 383.85 125.927 380.069 Z
M 128.315 380.017
C 128.197 380.835 128.347 381.16 128.831 381.795
C 130.25 382.558 132.305 380.343 132.368 379.029
C 130.917 378.208 129.309 378.877 128.315 380.017 Z
M 158.382 357.003
C 158.092 357.795 158.099 358.439 158.728 359.059
C 159.376 359.116 159.968 359.164 160.604 358.996
C 161.555 358.086 161.448 357.092 160.43 356.391
C 159.474 356.222 159.083 356.328 158.382 357.003 Z"
opacity="1" fill="rgb(60,157,57)" fill-rule="evenodd" />
<path d="
M 150.858 228.513
C 151.925 226.455 155.412 223.378 157.942 225.102
C 159.32 226.042 159.141 228.101 160.259 229.164
C 161.529 229.241 162.912 229.211 164.063 229.831
C 165.61 230.663 166.681 232.71 168.182 233.791
C 175.553 239.098 182.284 246.111 187.886 253.223
C 189.393 255.136 191.879 254.973 193.367 256.938
C 195.394 259.613 193.583 263.132 190.387 263.71
C 188.04 263.509 186.547 260.23 186.912 258.133
C 187.02 257.511 187.612 256.725 187.45 256.119
C 184.685 254.88 182.427 250.863 180.43 248.638
C 176.115 243.83 171.061 238.937 165.843 235.119
C 164.192 233.911 162.459 231.901 160.482 231.32
C 158.875 231.694 157.649 233.005 155.96 233.351
C 153.029 233.953 150.605 231.325 150.858 228.513 Z
M 153.449 229.064
C 153.491 229.975 153.741 230.476 154.587 230.858
C 155.44 230.938 157.166 230.609 157.521 229.665
C 157.284 228.908 157.037 228.379 156.533 227.764
C 155.154 227.511 154.228 227.888 153.449 229.064 Z
M 189.463 258.606
C 189.408 259.572 189.561 260.552 190.417 261.114
C 191.109 261.045 191.973 260.579 192.292 259.946
C 192.183 258.526 191.009 257.7 189.679 258.06
C 189.607 258.242 189.535 258.424 189.463 258.606 Z"
opacity="1" fill="rgb(68,158,61)" fill-rule="evenodd" />
<path d="
M 167.472 348.665
C 167.715 347.643 168.002 346.77 168.705 345.96
C 170.529 343.861 174.209 344.892 175.021 347.547
C 175.577 349.365 174.471 351.457 173.196 352.702
C 172.273 353.604 170.987 354.499 169.737 353.75
C 168.859 352.32 168.082 350.242 167.472 348.665 Z
M 169.957 348.56
C 170.085 349.271 170.307 349.737 170.743 350.309
C 174.543 350.592 173.555 345.975 170.486 347.513
C 170 348.204 170.161 347.848 169.957 348.56 Z"
opacity="0.996" fill="rgb(66,158,65)" fill-rule="evenodd" />
<path d="
M 174.299 293.475
C 174.775 293.318 175.321 293.197 175.68 292.832
C 175.221 294.148 175.802 294.511 176.497 295.506
C 175.72 294.965 175.246 294.732 174.275 294.988
C 174.269 294.482 174.278 293.981 174.299 293.475 Z"
opacity="1" fill="rgb(129,203,129)" fill-rule="evenodd" />
<path d="
M 177.633 339.494
C 177.009 339.034 177.164 338.914 176.213 338.961
C 176.205 337.786 175.623 335.893 176.869 335.179
C 177.209 335.642 177.376 336.06 177.501 336.621
C 177.556 337.581 177.503 338.541 177.633 339.494 Z"
opacity="1" fill="rgb(112,212,110)" fill-rule="evenodd" />
<path d="
M 176.213 338.961
C 177.164 338.914 177.009 339.034 177.633 339.494
C 177.618 340.077 177.857 343.078 176.845 343.13
C 176.785 343.133 175.872 342.509 175.791 342.473
C 175.889 341.774 175.859 342.108 175.891 341.472
C 176.111 340.66 176.091 339.794 176.213 338.961 Z"
opacity="0.996" fill="rgb(157,248,156)" fill-rule="evenodd" />
<path d="
M 192.437 266.117
C 192.666 265.14 193.021 264.856 193.97 264.626
C 194.838 265.729 195.144 267.094 195.736 268.358
C 197.689 272.532 199.046 276.86 200.769 281.085
C 202.035 281.862 203.468 281.916 204.496 283.107
C 206.673 287.165 201.451 291.138 198.179 287.68
C 196.352 285.75 198.769 283.796 198.393 281.601
C 197.698 277.536 195.334 273.896 193.854 270.109
C 193.356 268.833 192.433 267.518 192.437 266.117 Z
M 199.911 285.549
C 200.199 287.616 203.83 286.415 202.69 284.975
C 201.772 284.702 200.927 284.633 200.11 285.181
C 200.044 285.304 199.977 285.427 199.911 285.549 Z"
opacity="1" fill="rgb(62,153,59)" fill-rule="evenodd" />
<path d="
M 250.446 342.785
C 258.612 342.453 266.931 343.459 275.083 342.705
C 275.103 343.92 275.117 345.162 275.174 346.375
C 271.96 347.085 268.186 345.515 265.04 346.701
C 264.426 353.063 264.806 359.603 264.795 365.99
C 264.792 367.762 264.782 369.533 264.785 371.305
C 264.785 371.833 264.546 372.747 264.79 373.231
C 263.532 373.151 262.259 373.117 261 373.192
C 261.297 364.336 260.795 355.436 261.139 346.591
C 260.1 346.192 258.704 346.409 257.601 346.416
C 255.19 346.433 252.758 346.291 250.366 346.559
C 250.154 345.362 250.452 344.007 250.446 342.785 Z"
opacity="1" fill="rgb(64,162,53)" fill-rule="evenodd" />
<path d="
M 253.267 237.779
C 261.342 237.678 269.425 237.728 277.503 237.712
C 288.728 237.69 299.192 237.792 309.451 242.958
C 336.51 256.585 337.915 297.654 313.62 314.662
C 302.166 322.68 288.882 322.731 275.499 322.708
C 268.097 322.696 260.652 322.91 253.259 322.728
C 253.451 306.325 252.919 289.876 253.547 273.484
C 253.708 269.309 253.342 265.024 253.773 260.871
C 259.251 260.956 264.779 260.807 270.259 260.736
C 269.494 265.359 270.246 270.791 270.254 275.501
C 270.27 285.993 270.438 296.491 270.417 306.982
C 280.519 306.388 291.547 308.914 300.799 303.645
C 316.597 294.65 318.296 268.542 302.844 258.163
C 293.891 252.149 283.258 253.367 273 253.369
C 266.566 253.369 259.831 252.751 253.43 253.425
C 253.057 252.136 253.406 250.351 253.405 248.995
C 253.401 245.271 253.59 241.492 253.267 237.779 Z"
opacity="1" fill="rgb(83,176,63)" fill-rule="evenodd" />
<path d="
M 280.988 353.616
C 281.379 350.221 281.222 346.581 281.055 343.173
C 282.129 342.312 285.135 342.881 286.508 342.883
C 290.248 342.888 293.985 342.864 297.725 342.834
C 299.183 342.823 301.435 342.375 302.806 342.826
C 302.749 343.996 303.002 345.205 303.103 346.378
C 301.52 346.836 299.169 346.39 297.508 346.399
C 293.269 346.421 289.013 346.44 284.779 346.335
C 284.518 348.563 284.687 350.944 284.677 353.192
C 284.674 353.985 284.467 355.359 285.038 355.921
C 288.343 355.746 291.693 355.907 295.006 355.886
C 296.917 355.874 299.109 355.521 300.986 355.869
C 301.197 357.032 300.6 358.419 301.134 359.516
C 297.259 358.995 292.865 359.361 288.956 359.478
C 287.853 359.511 285.768 359.24 284.94 359.884
C 284.897 362.923 284.35 366.789 284.984 369.751
C 289.225 368.896 294.186 369.495 298.507 369.42
C 299.808 369.397 302.249 368.846 303.389 369.466
C 303.361 370.729 303.378 371.94 303.564 373.187
C 301.296 372.655 298.338 373.077 296.001 373.07
C 291.074 373.056 286.076 372.85 281.156 373.111
C 280.362 372.184 280.959 369.232 280.956 367.999
C 280.944 363.231 280.676 358.374 280.988 353.616 Z"
opacity="1" fill="rgb(65,162,54)" fill-rule="evenodd" />
<path d="
M 308.458 354.59
C 310.758 345.865 318.877 340.124 328.007 342.785
C 331.231 343.724 333.289 345.665 335.809 347.704
C 335.688 348.24 332.491 350.079 332.13 349.912
C 328.996 344.645 321.07 344.53 316.597 348.022
C 309.433 353.615 311.158 365.184 319.088 369.056
C 321.216 370.095 323.774 370.389 326.081 369.85
C 328.721 369.233 330.713 367.719 332.559 365.794
C 333.092 365.609 336.067 367.747 336.022 368.362
C 327.338 377.581 310.206 373.786 308.369 360.547
C 308.102 358.627 308.071 356.494 308.458 354.59 Z"
opacity="1" fill="rgb(68,164,54)" fill-rule="evenodd" />
<path d="
M 341.784 342.902
C 343.044 342.934 344.489 342.7 345.7 343.125
C 345.656 347.372 345.421 351.69 345.725 355.928
C 351.322 356.605 357.203 355.95 362.859 356.321
C 362.057 352.101 362.899 347.443 362.561 343.153
C 363.558 342.637 365.45 342.953 366.587 342.915
C 367.09 350.529 366.608 358.354 366.591 365.989
C 366.587 367.824 366.573 369.661 366.614 371.495
C 366.621 371.826 366.795 373.29 366.54 373.441
C 365.289 373.424 364.005 373.562 362.765 373.428
C 362.655 368.854 362.434 364.026 362.885 359.473
C 358.964 359.067 354.856 359.425 350.918 359.469
C 349.299 359.487 346.91 359.083 345.483 359.891
C 345.389 363.086 345.673 366.329 345.668 369.54
C 345.667 370.276 345.325 372.633 345.771 373.119
C 344.506 373.107 343.203 373.146 341.943 373.269
C 341.623 372.718 341.861 371.352 341.855 370.696
C 341.836 368.794 341.851 366.893 341.846 364.991
C 341.828 357.631 341.925 350.26 341.784 342.902 Z"
opacity="1" fill="rgb(66,168,54)" fill-rule="evenodd" />
<path d="
M 343.988 239.112
C 344.078 238.508 344.06 238.869 343.939 238.029
C 345.374 237.622 347.016 237.899 348.501 237.905
C 351.168 237.914 353.836 237.891 356.503 237.879
C 357.55 237.874 360.108 237.385 360.869 238.044
C 360.272 251.248 360.752 264.596 360.803 277.813
C 360.835 285.978 360.397 294.522 365.613 301.385
C 373.803 312.161 392.584 310.239 398.484 298.169
C 402.012 290.952 401.133 282.285 401.116 274.501
C 401.099 266.834 401.077 259.166 401.132 251.499
C 401.163 247.05 401.529 242.456 401.142 238.025
C 404.84 237.458 408.874 237.908 412.613 237.89
C 414.281 237.882 416.498 237.442 418.089 237.901
C 417.497 250.607 418.077 263.532 418.111 276.265
C 418.139 286.504 418.036 297.038 413.206 306.35
C 401.318 329.274 362.639 331.366 349.325 308.488
C 343.775 298.952 343.929 288.052 343.909 277.363
C 343.886 264.611 343.838 251.85 343.988 239.112 Z"
opacity="1" fill="rgb(83,175,63)" fill-rule="evenodd" />
<path d="
M 375.844 342.95
C 376.917 342.86 377.917 342.766 378.988 342.927
C 381.042 344.3 382.397 347.234 383.926 349.155
C 388.346 354.707 392.563 360.562 397.221 365.91
C 397.473 365.481 397.212 364.508 397.222 364.008
C 397.246 362.672 397.279 361.336 397.29 359.999
C 397.336 354.453 397.653 348.783 397.192 343.252
C 398.013 342.974 400.554 342.551 401.231 343.182
C 401.007 350.104 401.17 357.068 401.176 363.994
C 401.177 366.636 401.904 370.85 400.901 373.295
C 400.001 373.337 399.107 373.35 398.211 373.239
C 396.565 372.164 395.249 369.418 394 367.857
C 390.649 363.667 387.123 359.565 383.964 355.228
C 382.89 353.753 381.694 352.321 380.749 350.762
C 380.617 350.544 379.901 349.403 379.796 349.425
C 379.376 349.513 379.772 351.073 379.782 351.15
C 379.955 352.391 379.765 353.738 379.75 354.988
C 379.701 358.99 379.722 362.995 379.745 366.998
C 379.757 368.929 379.493 371.228 379.933 373.102
C 379.356 373.63 376.792 373.246 375.941 373.303
C 375.352 371.184 375.859 368.202 375.865 365.99
C 375.877 360.992 375.766 355.995 375.768 350.998
C 375.77 348.719 374.987 345.029 375.844 342.95 Z"
opacity="1" fill="rgb(64,165,52)" fill-rule="evenodd" />
<path d="
M 408.437 356.601
C 408.679 354.237 409.404 351.864 410.572 349.796
C 411.493 348.165 412.816 346.77 414.275 345.606
C 424.953 337.083 440.547 346.597 439.247 359.815
C 439.06 361.727 438.435 363.637 437.571 365.344
C 431.443 377.454 412.796 375.386 409.074 362.527
C 408.522 360.624 408.235 358.58 408.437 356.601 Z
M 412.452 356.603
C 412.258 358.472 412.463 360.319 413.069 362.101
C 413.603 363.671 414.486 365.153 415.607 366.377
C 422.348 373.742 434.214 369.02 435.298 359.483
C 436.41 349.7 425.355 341.513 417.042 348.221
C 415.83 349.199 414.798 350.34 414.019 351.694
C 413.161 353.184 412.629 354.891 412.452 356.603 Z"
opacity="1" fill="rgb(69,165,55)" fill-rule="evenodd" />
<path d="
M 435.346 237.941
C 440.424 237.925 445.509 237.809 450.586 237.794
C 459.648 249.853 468.915 261.727 478.145 273.658
C 483.182 280.17 487.857 287.184 493.218 293.414
C 493.68 292.429 493.281 290.1 493.284 288.995
C 493.295 285.162 493.299 281.329 493.303 277.496
C 493.311 268.829 493.318 260.161 493.341 251.494
C 493.352 246.96 493.687 242.299 493.308 237.781
C 498.765 238.205 504.649 236.905 510.048 237.838
C 510.47 244.646 509.97 251.666 509.977 258.506
C 509.991 272.508 510.096 286.494 510.141 300.496
C 510.158 305.832 510.159 311.167 510.19 316.502
C 510.199 317.994 510.243 319.486 510.25 320.977
C 510.251 321.324 510.094 322.258 510.314 322.557
C 505.348 322.67 500.22 322.646 495.233 322.566
C 493.756 321.433 492.753 319.198 491.602 317.718
C 489.073 314.465 486.633 311.137 484.203 307.809
C 477.14 298.133 469.728 288.723 462.471 279.199
C 459.848 275.755 457.176 272.357 454.601 268.876
C 454.026 268.1 453.451 267.325 452.88 266.546
C 452.637 266.213 452.526 265.381 452.149 265.548
C 452.071 265.583 452.197 268.084 452.2 268.491
C 452.224 271.826 452.2 275.164 452.203 278.499
C 452.213 288.666 452.261 298.833 452.196 309
C 452.176 312.166 452.126 315.332 452.142 318.499
C 452.148 319.668 451.828 321.552 452.229 322.635
C 450.554 322.249 448.359 322.588 446.62 322.572
C 442.916 322.537 439.052 322.228 435.366 322.6
C 434.713 319.866 435.313 316.32 435.306 313.495
C 435.291 306.828 435.32 300.161 435.33 293.494
C 435.35 281.162 435.294 268.829 435.291 256.497
C 435.289 250.367 434.865 244.05 435.346 237.941 Z"
opacity="1" fill="rgb(82,175,64)" fill-rule="evenodd" />
<path d="
M 446.264 342.867
C 447.587 342.879 448.901 342.795 450.225 342.927
C 450.515 343.608 450.315 344.752 450.316 345.493
C 450.321 347.325 450.335 349.157 450.326 350.989
C 450.296 357.18 450.546 363.406 450.345 369.592
C 455.918 369.732 461.583 369.005 467.151 369.453
C 467.566 370.527 466.693 372.204 467.233 373.167
C 465.8 372.894 463.983 373.207 462.502 373.21
C 459.002 373.219 455.501 373.234 452 373.23
C 450.46 373.229 447.625 373.822 446.29 373.123
C 446.621 365.769 446.387 358.356 446.359 350.994
C 446.349 348.322 446.008 345.518 446.264 342.867 Z"
opacity="1" fill="rgb(67,172,58)" fill-rule="evenodd" />
<path d="
M 468.902 354.579
C 470.909 343.573 483.928 338.896 492.95 345.037
C 498.032 348.496 500.256 355.231 499.253 361.113
C 498.938 362.96 498.202 364.67 497.215 366.257
C 490.558 376.957 474.56 375.386 469.611 363.893
C 468.393 361.063 468.359 357.557 468.902 354.579 Z
M 472.929 354.574
C 470.172 364.152 480.264 373.702 489.364 368.668
C 490.567 368.003 491.698 367.202 492.563 366.122
C 493.598 364.827 494.46 363.322 494.947 361.733
C 497.814 352.4 488.149 341.976 478.792 347.028
C 477.438 347.759 476.295 348.814 475.322 349.996
C 474.218 351.337 473.41 352.904 472.929 354.574 Z"
opacity="1" fill="rgb(65,164,52)" fill-rule="evenodd" />
<path d="
M 504.928 355.595
C 505.637 352.287 506.617 349.274 509.051 346.797
C 514.814 340.933 525.528 340.792 531.599 346.411
C 531.176 347.024 529.533 349.359 528.754 349.272
C 526.514 347.872 524.704 346.129 521.957 345.749
C 508.195 343.842 503.286 365.373 516.332 369.729
C 518.016 370.291 519.889 370.245 521.629 370.036
C 524.103 369.739 526.632 368.675 528.737 367.352
C 528.898 364.896 528.611 362.389 528.845 359.945
C 528.346 359.57 527.136 359.803 526.507 359.802
C 524.475 359.8 521.416 360.407 519.542 359.694
C 519.402 358.676 519.277 357.574 519.556 356.573
C 522.706 356.585 525.851 356.756 529.003 356.745
C 529.932 356.741 531.643 356.414 532.396 356.98
C 532.518 361.167 532.834 365.652 532.259 369.809
C 528.402 371.042 524.929 373.477 520.765 373.688
C 510.776 374.195 503.429 365.329 504.928 355.595 Z"
opacity="1" fill="rgb(65,163,51)" fill-rule="evenodd" />
<path d="
M 527.945 239.111
C 528.06 238.498 528.028 238.858 527.953 238.025
C 529.549 237.613 531.354 237.886 532.999 237.861
C 536.24 237.813 539.584 237.619 542.816 237.813
C 544.399 239.19 545.535 241.224 546.807 242.884
C 549.244 246.067 551.736 249.206 554.144 252.411
C 560.929 261.438 567.891 270.345 574.895 279.202
C 577.635 282.665 580.229 286.248 582.948 289.727
C 583.558 290.507 585.012 293.315 585.883 293.5
C 586.344 291.962 585.807 289.622 585.784 288.003
C 585.731 284.167 585.743 280.333 585.754 276.497
C 585.778 267.83 585.763 259.163 585.795 250.496
C 585.809 246.491 586.249 242.305 585.904 238.323
C 586.925 237.407 588.959 237.816 590.31 237.816
C 593.208 237.815 596.106 237.82 599.004 237.816
C 600.108 237.815 601.548 237.518 602.593 237.872
C 603.002 259.314 602.097 280.796 602.484 302.234
C 602.576 307.318 602.556 312.409 602.579 317.497
C 602.584 318.719 602.459 319.991 602.542 321.2
C 602.557 321.416 602.748 322.329 602.499 322.404
C 597.736 322.462 592.422 323.057 587.713 322.416
C 582.278 316.014 577.699 308.783 572.599 302.106
C 564.117 291.005 555.646 279.924 547.066 268.899
C 546.504 268.138 545.93 267.364 545.337 266.626
C 545.044 266.261 544.883 265.345 544.456 265.535
C 544.021 265.73 544.555 266.484 544.589 266.959
C 544.663 267.999 544.699 269.055 544.725 270.099
C 544.852 275.226 544.761 280.37 544.767 285.499
C 544.778 294.5 544.792 303.5 544.774 312.501
C 544.768 314.999 544.744 317.498 544.758 319.996
C 544.762 320.632 544.492 322.058 544.812 322.575
C 539.253 322.664 533.411 321.806 527.878 322.635
C 528.131 304.096 527.99 285.533 527.923 266.991
C 527.89 257.786 527.209 248.286 527.945 239.111 Z"
opacity="1" fill="rgb(81,174,62)" fill-rule="evenodd" />
<path d="
M 540.843 342.942
C 541.892 342.935 543.402 342.589 544.381 343
C 544.305 350.583 543.681 358.592 544.556 366.129
C 544.828 368.475 544.349 370.905 544.662 373.248
C 543.77 372.895 541.899 373.189 540.928 373.265
C 540.638 372.895 540.849 371.669 540.862 371.175
C 540.91 369.45 540.882 367.718 540.884 365.992
C 540.892 360.528 540.83 355.06 540.76 349.597
C 540.737 347.848 540.078 344.462 540.843 342.942 Z"
opacity="1" fill="rgb(60,172,48)" fill-rule="evenodd" />
<path d="
M 553.829 342.894
C 561.152 342.681 568.537 342.797 575.865 342.835
C 575.807 344.023 575.952 345.202 575.879 346.395
C 571.781 346.177 567.618 346.399 563.51 346.358
C 561.613 346.339 559.224 345.872 557.392 346.337
C 557.555 348.462 557.634 350.568 557.636 352.701
C 557.637 353.617 557.424 355.088 557.825 355.907
C 561.18 355.667 564.636 355.87 568.004 355.839
C 569.938 355.821 572.176 355.471 574.07 355.844
C 574.226 356.933 574.416 358.41 574.09 359.478
C 570.399 359.63 566.698 359.575 563.002 359.606
C 561.315 359.621 559.465 359.385 557.819 359.765
C 557.753 362.232 557.813 364.714 557.811 367.183
C 557.81 367.82 557.55 369.324 557.894 369.82
C 563.702 369.138 570.449 369.072 576.263 369.67
C 576.485 370.66 576.46 372.135 576.308 373.141
C 571.105 373.503 565.727 373.097 560.504 373.143
C 558.681 373.159 555.423 373.809 553.777 373.125
C 553.905 366.09 553.695 359.038 553.684 352.002
C 553.68 349.276 552.972 345.463 553.829 342.894 Z"
opacity="1" fill="rgb(65,161,55)" fill-rule="evenodd" />
<path d="
M 580.847 368.564
C 580.853 368.467 580.858 368.37 580.864 368.273
C 581.812 367.445 582.766 366.576 583.626 365.658
C 584.293 365.6 585.41 367.283 586.01 367.765
C 587.475 368.943 589.159 369.654 591.006 369.99
C 593.07 370.365 595.388 370.517 597.357 369.64
C 600.225 368.362 601.628 364.968 599.318 362.437
C 594.754 357.438 582.141 360.67 582.327 351.1
C 582.485 342.947 591.462 340.838 597.946 343.005
C 599.757 343.611 602.237 344.494 603.38 346.113
C 603.129 346.914 602.088 348.746 601.192 348.939
C 597.855 346.551 594.299 344.787 590.116 345.911
C 587.874 346.514 586.037 348.178 586.232 350.644
C 586.479 353.754 589.356 354.802 591.965 355.472
C 596.225 356.565 602.78 357.73 604.17 362.664
C 605.772 368.35 601.177 372.464 596.012 373.327
C 590.317 374.278 585.257 371.947 580.847 368.564 Z"
opacity="1" fill="rgb(66,160,55)" fill-rule="evenodd" />

</svg>